<svg xmlns="http://www.w3.org/2000/svg" width="24" height="24" fill="none" viewBox="0 0 24 24"><path fill="#fff" fill-opacity=".3" d="M16 12L12 5L8 12L3 5L4 18H20L21 5L16 12Z"/><path fill="#fff" fill-opacity=".6" fill-rule="evenodd" d="M21.5 21H2.5C2.22 21 2 20.78 2 20.5V18.5C2 18.22 2.22 18 2.5 18H21.5C21.78 18 22 18.22 22 18.5V20.5C22 20.78 21.78 21 21.5 21Z" clip-rule="evenodd"/><path fill="#fff" fill-opacity=".5" d="M3 5C3.55228 5 4 4.55228 4 4C4 3.44772 3.55228 3 3 3C2.44772 3 2 3.44772 2 4C2 4.55228 2.44772 5 3 5Z"/><path fill="#fff" fill-opacity=".5" d="M21 5C21.5523 5 22 4.55228 22 4C22 3.44772 21.5523 3 21 3C20.4477 3 20 3.44772 20 4C20 4.55228 20.4477 5 21 5Z"/><path fill="#fff" fill-opacity=".5" d="M12 5C12.5523 5 13 4.55228 13 4C13 3.44772 12.5523 3 12 3C11.4477 3 11 3.44772 11 4C11 4.55228 11.4477 5 12 5Z"/></svg>