<svg xmlns="http://www.w3.org/2000/svg" width="24" height="24" fill="none" viewBox="0 0 24 24"><path fill-rule="evenodd" stroke="#fff" stroke-linejoin="round" stroke-miterlimit="10" stroke-opacity=".3" stroke-width="1.2" d="M18 8H6C6 4.69 8.69 2 12 2C15.31 2 18 4.69 18 8Z" clip-rule="evenodd"/><path fill="#fff" fill-opacity=".3" fill-rule="evenodd" d="M19 22H5C4.45 22 4 21.55 4 21V9C4 8.45 4.45 8 5 8H19C19.55 8 20 8.45 20 9V21C20 21.55 19.55 22 19 22Z" clip-rule="evenodd"/><path stroke="#fff" stroke-linecap="square" stroke-linejoin="round" stroke-miterlimit="10" stroke-opacity=".6" stroke-width="1.2" d="M9.16992 12.1699L14.8299 17.8299"/><path stroke="#fff" stroke-linecap="square" stroke-linejoin="round" stroke-miterlimit="10" stroke-opacity=".6" stroke-width="1.2" d="M12 11V19"/><path stroke="#fff" stroke-linecap="square" stroke-linejoin="round" stroke-miterlimit="10" stroke-opacity=".6" stroke-width="1.2" d="M14.8299 12.1699L9.16992 17.8299"/><path stroke="#fff" stroke-linecap="square" stroke-linejoin="round" stroke-miterlimit="10" stroke-opacity=".6" stroke-width="1.2" d="M16 15H8"/></svg>