<svg xmlns="http://www.w3.org/2000/svg" width="25" height="24" fill="none" viewBox="0 0 25 24"><path fill="#fff" fill-opacity=".6" fill-rule="evenodd" d="M22.3398 16L17.3398 10L11.3398 18L6.33984 14L2.33984 17V19C2.33984 20.1 3.23984 21 4.33984 21H20.3398C21.4398 21 22.3398 20.1 22.3398 19V16Z" clip-rule="evenodd"/><path fill="#fff" fill-opacity=".6" d="M7.33984 10C7.89213 10 8.33984 9.55228 8.33984 9C8.33984 8.44772 7.89213 8 7.33984 8C6.78756 8 6.33984 8.44772 6.33984 9C6.33984 9.55228 6.78756 10 7.33984 10Z"/><path fill="#fff" fill-opacity=".3" fill-rule="evenodd" d="M20.3398 21H4.33984C3.23984 21 2.33984 20.1 2.33984 19V7C2.33984 5.9 3.23984 5 4.33984 5H20.3398C21.4398 5 22.3398 5.9 22.3398 7V19C22.3398 20.1 21.4398 21 20.3398 21Z" clip-rule="evenodd"/></svg>