<svg xmlns="http://www.w3.org/2000/svg" width="24" height="24" fill="none" viewBox="0 0 24 24"><path fill="#fff" fill-opacity=".3" d="M22 10V22H4V2H14"/><path fill="#fff" fill-opacity=".5" d="M18 18H8V17C8 14.24 10.24 12 13 12C15.76 12 18 14.24 18 17V18Z"/><path fill="#fff" fill-opacity=".5" d="M13 12C14.6569 12 16 10.6569 16 9C16 7.34315 14.6569 6 13 6C11.3431 6 10 7.34315 10 9C10 10.6569 11.3431 12 13 12Z"/><path stroke="#fff" stroke-linecap="round" stroke-linejoin="round" stroke-miterlimit="10" stroke-opacity=".6" stroke-width="1.2" d="M5 11.5H2V12.5H5V11.5Z"/><path stroke="#fff" stroke-linecap="round" stroke-linejoin="round" stroke-miterlimit="10" stroke-opacity=".6" stroke-width="1.2" d="M5 18H2V19H5V18Z"/><path stroke="#fff" stroke-linecap="round" stroke-linejoin="round" stroke-miterlimit="10" stroke-opacity=".6" stroke-width="1.2" d="M5 5H2V6H5V5Z"/><path stroke="#fff" stroke-miterlimit="10" stroke-opacity=".6" stroke-width="1.2" d="M17.5996 3.3499L19.3996 5.1499L22.3996 2.1499"/></svg>