<svg xmlns="http://www.w3.org/2000/svg" width="32" height="32" fill="none" viewBox="0 0 32 32"><path fill="#fff" fill-rule="evenodd" d="M16 32C24.8366 32 32 24.8366 32 16C32 7.16344 24.8366 0 16 0C7.16344 0 0 7.16344 0 16C0 24.8366 7.16344 32 16 32Z" clip-rule="evenodd"/><g clip-path="url(#clip0)"><path fill="#42A5F5" fill-opacity=".8" d="M9.77181 18.7711L7 15.9993L16 7H21.5429L9.77181 18.7711ZM21.5429 15.3045H16L13.9237 17.3808L16.6955 20.1526"/><path fill="#0D47A1" d="M13.9219 22.9237L15.9982 25H21.5411L16.6937 20.1526"/><path fill="#42A5F5" d="M11.1602 20.1541L13.9276 17.3859L16.695 20.1533L13.9276 22.9215L11.1602 20.1541Z"/><path fill="url(#paint0_linear)" d="M13.9258 22.9215L16.6932 20.1541L17.0795 20.5404L14.3121 23.3078L13.9258 22.9215Z"/><path fill="url(#paint1_linear)" d="M13.9219 22.9237L18.0344 21.5029L16.6936 20.1519"/></g><defs><linearGradient id="paint0_linear" x1="15.31" x2="15.696" y1="21.537" y2="21.924" gradientUnits="userSpaceOnUse"><stop offset=".2" stop-opacity=".15"/><stop offset=".85" stop-color="#616161" stop-opacity=".01"/></linearGradient><linearGradient id="paint1_linear" x1="13.923" x2="18.035" y1="21.538" y2="21.538" gradientUnits="userSpaceOnUse"><stop offset=".2" stop-opacity=".55"/><stop offset=".85" stop-color="#616161" stop-opacity=".01"/></linearGradient><clipPath id="clip0"><rect width="14.543" height="18" fill="#fff" transform="translate(7 7)"/></clipPath></defs></svg>